<svg width="395" height="395" viewBox="0 0 395 395" fill="none" xmlns="http://www.w3.org/2000/svg">
<rect x="40.0918" y="98.0791" width="163" height="153" rx="23" fill="#D4FF3F"/>
<rect x="76.0918" y="108.079" width="26" height="143" fill="#5B4DFF"/>
<rect x="118.092" y="108.079" width="17" height="143" fill="#5B4DFF"/>
<rect x="151.092" y="108.079" width="29" height="143" fill="#5B4DFF"/>
<path d="M125.7 83.6C146.7 83.6 164.3 86.2 178.5 91.4C192.7 96.6 204 103.7 212.4 112.7C220.8 121.5 226.8 131.7 230.4 143.3C234.2 154.9 236.1 167.1 236.1 179.9C236.1 192.9 234.1 205.3 230.1 217.1C226.1 228.9 219.7 239.4 210.9 248.6C202.3 257.6 191 264.8 177 270.2C163 275.4 145.9 278 125.7 278H32.4V83.6H125.7ZM66.6 248H125.4C140.2 248 152.5 246.1 162.3 242.3C172.1 238.5 179.9 233.4 185.7 227C191.5 220.4 195.6 213.1 198 205.1C200.4 196.9 201.6 188.5 201.6 179.9C201.6 171.3 200.4 163.1 198 155.3C195.6 147.3 191.5 140.2 185.7 134C179.9 127.6 172.1 122.6 162.3 119C152.5 115.2 140.2 113.3 125.4 113.3H66.6V248Z" fill="black"/>
<path d="M62.4099 306.088C68.9899 306.088 74.5046 306.903 78.9539 308.532C83.4032 310.161 86.9439 312.386 89.5759 315.206C92.2079 317.963 94.0879 321.159 95.2159 324.794C96.4066 328.429 97.0019 332.251 97.0019 336.262C97.0019 340.335 96.3752 344.221 95.1219 347.918C93.8686 351.615 91.8632 354.905 89.1059 357.788C86.4112 360.608 82.8706 362.864 78.4839 364.556C74.0972 366.185 68.7392 367 62.4099 367H33.1759V306.088H62.4099ZM43.8919 357.6H62.3159C66.9532 357.6 70.8072 357.005 73.8779 355.814C76.9486 354.623 79.3926 353.025 81.2099 351.02C83.0272 348.952 84.3119 346.665 85.0639 344.158C85.8159 341.589 86.1919 338.957 86.1919 336.262C86.1919 333.567 85.8159 330.998 85.0639 328.554C84.3119 326.047 83.0272 323.823 81.2099 321.88C79.3926 319.875 76.9486 318.308 73.8779 317.18C70.8072 315.989 66.9532 315.394 62.3159 315.394H43.8919V357.6ZM136.352 351.584H146.41C145.909 354.78 144.655 357.631 142.65 360.138C140.707 362.582 138.044 364.525 134.66 365.966C131.276 367.345 127.234 368.034 122.534 368.034C117.207 368.034 112.445 367.063 108.246 365.12C104.047 363.115 100.757 360.295 98.3759 356.66C95.9946 353.025 94.8039 348.701 94.8039 343.688C94.8039 338.737 95.9633 334.413 98.2819 330.716C100.601 327.019 103.797 324.167 107.87 322.162C112.006 320.157 116.769 319.154 122.158 319.154C127.735 319.154 132.373 320.157 136.07 322.162C139.83 324.105 142.619 327.05 144.436 330.998C146.253 334.883 147.005 339.803 146.692 345.756H105.426C105.739 348.388 106.585 350.769 107.964 352.9C109.405 354.968 111.348 356.597 113.792 357.788C116.236 358.916 119.087 359.48 122.346 359.48C125.981 359.48 129.02 358.759 131.464 357.318C133.971 355.877 135.6 353.965 136.352 351.584ZM121.876 327.614C117.615 327.614 114.105 328.679 111.348 330.81C108.591 332.878 106.805 335.541 105.99 338.8H136.164C135.913 335.291 134.503 332.565 131.934 330.622C129.365 328.617 126.012 327.614 121.876 327.614ZM147.538 301.388H157.972V367H147.538V301.388ZM194.444 320.188L168.218 344.252L168.5 337.672L196.418 367H183.07L158.254 340.774L179.968 320.188H194.444ZM216.176 368.034C210.975 368.034 206.306 367.094 202.17 365.214C198.034 363.334 194.776 360.577 192.394 356.942C190.013 353.307 188.822 348.889 188.822 343.688C188.822 338.549 190.013 334.163 192.394 330.528C194.776 326.831 198.034 324.011 202.17 322.068C206.306 320.125 210.975 319.154 216.176 319.154C221.378 319.154 226.015 320.125 230.088 322.068C234.162 324.011 237.358 326.831 239.676 330.528C242.058 334.163 243.248 338.549 243.248 343.688C243.248 348.889 242.058 353.307 239.676 356.942C237.358 360.577 234.162 363.334 230.088 365.214C226.015 367.094 221.378 368.034 216.176 368.034ZM216.176 359.48C219.184 359.48 221.942 358.885 224.448 357.694C226.955 356.503 228.929 354.717 230.37 352.336C231.874 349.955 232.626 347.072 232.626 343.688C232.626 340.304 231.874 337.421 230.37 335.04C228.929 332.659 226.955 330.841 224.448 329.588C222.004 328.272 219.247 327.614 216.176 327.614C213.106 327.614 210.317 328.241 207.81 329.494C205.304 330.747 203.267 332.565 201.7 334.946C200.196 337.327 199.444 340.241 199.444 343.688C199.444 347.072 200.196 349.955 201.7 352.336C203.204 354.717 205.21 356.503 207.716 357.694C210.286 358.885 213.106 359.48 216.176 359.48ZM264.055 368.034C259.731 368.034 255.783 367 252.211 364.932C248.701 362.864 245.913 360.013 243.845 356.378C241.777 352.681 240.743 348.451 240.743 343.688C240.743 338.8 241.745 334.539 243.751 330.904C245.819 327.207 248.576 324.324 252.023 322.256C255.532 320.188 259.543 319.154 264.055 319.154C268.003 319.154 271.324 319.812 274.019 321.128C276.713 322.381 278.844 324.136 280.411 326.392C281.977 328.585 283.105 331.155 283.795 334.1C284.547 337.045 284.923 340.241 284.923 343.688C284.923 346.257 284.547 348.983 283.795 351.866C283.043 354.686 281.852 357.318 280.223 359.762C278.656 362.206 276.525 364.211 273.831 365.778C271.199 367.282 267.94 368.034 264.055 368.034ZM267.251 359.386C270.76 359.386 273.737 358.728 276.181 357.412C278.687 356.033 280.567 354.153 281.821 351.772C283.137 349.391 283.795 346.696 283.795 343.688C283.795 340.367 283.137 337.547 281.821 335.228C280.505 332.847 278.625 330.998 276.181 329.682C273.737 328.366 270.76 327.708 267.251 327.708C262.237 327.708 258.352 329.212 255.595 332.22C252.837 335.165 251.459 338.988 251.459 343.688C251.459 346.759 252.117 349.485 253.433 351.866C254.811 354.247 256.691 356.096 259.073 357.412C261.454 358.728 264.18 359.386 267.251 359.386ZM283.795 301.388H294.323V367H284.547C284.421 365.559 284.265 363.773 284.077 361.642C283.889 359.511 283.795 357.6 283.795 355.908V301.388ZM337.332 351.584H347.39C346.889 354.78 345.635 357.631 343.63 360.138C341.687 362.582 339.024 364.525 335.64 365.966C332.256 367.345 328.214 368.034 323.514 368.034C318.187 368.034 313.425 367.063 309.226 365.12C305.027 363.115 301.737 360.295 299.356 356.66C296.975 353.025 295.784 348.701 295.784 343.688C295.784 338.737 296.943 334.413 299.262 330.716C301.581 327.019 304.777 324.167 308.85 322.162C312.986 320.157 317.749 319.154 323.138 319.154C328.715 319.154 333.353 320.157 337.05 322.162C340.81 324.105 343.599 327.05 345.416 330.998C347.233 334.883 347.985 339.803 347.672 345.756H306.406C306.719 348.388 307.565 350.769 308.944 352.9C310.385 354.968 312.328 356.597 314.772 357.788C317.216 358.916 320.067 359.48 323.326 359.48C326.961 359.48 330 358.759 332.444 357.318C334.951 355.877 336.58 353.965 337.332 351.584ZM322.856 327.614C318.595 327.614 315.085 328.679 312.328 330.81C309.571 332.878 307.785 335.541 306.97 338.8H337.144C336.893 335.291 335.483 332.565 332.914 330.622C330.345 328.617 326.992 327.614 322.856 327.614ZM347.578 320.188H358.012V367H347.578V320.188ZM374.932 329.118C371.548 329.118 368.634 329.839 366.19 331.28C363.809 332.721 361.897 334.476 360.456 336.544C359.015 338.612 358.012 340.617 357.448 342.56L357.354 337.296C357.417 336.607 357.636 335.573 358.012 334.194C358.388 332.753 358.952 331.186 359.704 329.494C360.519 327.802 361.584 326.173 362.9 324.606C364.279 322.977 365.939 321.661 367.882 320.658C369.887 319.655 372.237 319.154 374.932 319.154V329.118Z" fill="black"/>
<path d="M330.5 302H344.5L329 317H319L330.5 302Z" fill="black"/>
</svg>
