<svg width="400" height="400" viewBox="0 0 400 400" fill="none" xmlns="http://www.w3.org/2000/svg">
<path d="M337 15H355C357.761 15 360 17.2386 360 20V25C360 27.7614 357.761 30 355 30H337V15Z" fill="#D4FF3F"/>
<path d="M364 15H382C384.761 15 387 17.2386 387 20V25C387 27.7614 384.761 30 382 30H364V15Z" fill="#3126FF"/>
<path d="M74.052 356.148C74.052 361.537 72.7987 365.36 70.292 367.616C67.848 369.872 63.7747 371 58.072 371H38.708V305.2H56.944C62.584 305.2 66.8453 306.359 69.728 308.678C72.6107 310.934 74.052 314.663 74.052 319.864V356.148ZM65.874 319.018C65.874 316.95 65.2473 315.321 63.994 314.13C62.7407 312.877 61.08 312.25 59.012 312.25H46.886V363.95H58.918C61.2993 363.95 63.054 363.417 64.182 362.352C65.31 361.224 65.874 359.469 65.874 357.088V319.018ZM122.842 305.2V312.062H99.6237V333.588H120.492V340.45H99.6237V364.138H122.842V371H91.4457V305.2H122.842ZM148.319 346.748V371H140.141V305.2H148.319V333.588L166.179 305.2H175.109L156.967 334.246L176.237 371H166.837L151.891 341.39L148.319 346.748ZM227.471 355.02C227.471 360.347 225.998 364.357 223.053 367.052C220.17 369.684 216.003 371 210.551 371H206.791C201.339 371 197.14 369.684 194.195 367.052C191.312 364.357 189.871 360.347 189.871 355.02V321.18C189.871 315.853 191.312 311.874 194.195 309.242C197.14 306.547 201.339 305.2 206.791 305.2H210.551C216.003 305.2 220.17 306.547 223.053 309.242C225.998 311.874 227.471 315.853 227.471 321.18V355.02ZM219.293 319.394C219.293 317.451 218.572 315.791 217.131 314.412C215.69 313.033 213.81 312.344 211.491 312.344H205.851C203.532 312.344 201.652 313.033 200.211 314.412C198.77 315.791 198.049 317.451 198.049 319.394V356.806C198.049 358.749 198.77 360.409 200.211 361.788C201.652 363.167 203.532 363.856 205.851 363.856H211.491C213.81 363.856 215.69 363.167 217.131 361.788C218.572 360.409 219.293 358.749 219.293 356.806V319.394ZM277.107 356.148C277.107 361.537 275.853 365.36 273.347 367.616C270.903 369.872 266.829 371 261.127 371H241.763V305.2H259.999C265.639 305.2 269.9 306.359 272.783 308.678C275.665 310.934 277.107 314.663 277.107 319.864V356.148ZM268.929 319.018C268.929 316.95 268.302 315.321 267.049 314.13C265.795 312.877 264.135 312.25 262.067 312.25H249.941V363.95H261.973C264.354 363.95 266.109 363.417 267.237 362.352C268.365 361.224 268.929 359.469 268.929 357.088V319.018ZM322.136 291.946L309.728 302.756H301.926L311.702 291.946H322.136ZM325.896 305.2V312.062H302.678V333.588H323.546V340.45H302.678V364.138H325.896V371H294.5V305.2H325.896ZM350.34 343.74V371H342.162V305.2H359.834C365.161 305.2 369.171 306.391 371.866 308.772C374.623 311.091 376.002 314.788 376.002 319.864V328.888C376.002 335.969 373.182 340.387 367.542 342.142L380.608 371H371.678L359.552 343.74H350.34ZM367.824 319.018C367.824 316.637 367.26 314.913 366.132 313.848C365.067 312.783 363.343 312.25 360.962 312.25H350.34V336.69H360.962C363.343 336.69 365.067 336.157 366.132 335.092C367.26 333.964 367.824 332.209 367.824 329.828V319.018Z" fill="black"/>
<rect x="24" y="305" width="13" height="66" fill="url(#paint0_linear_150_47)" fill-opacity="0.5"/>
<rect x="48" y="59" width="14" height="210" fill="black"/>
<rect x="25" y="59" width="17" height="210" fill="#3126FF"/>
<rect x="80" y="74" width="78" height="185" fill="#D4FF3F"/>
<path d="M180.4 221.6C180.4 238.8 176.4 251 168.4 258.2C160.6 265.4 147.6 269 129.4 269H67.6V59H125.8C143.8 59 157.4 62.7 166.6 70.1C175.8 77.3 180.4 89.2 180.4 105.8V221.6ZM154.3 103.1C154.3 96.5 152.3 91.3 148.3 87.5C144.3 83.5 139 81.5 132.4 81.5H93.7V246.5H132.1C139.7 246.5 145.3 244.8 148.9 241.4C152.5 237.8 154.3 232.2 154.3 224.6V103.1Z" fill="black"/>
<defs>
<linearGradient id="paint0_linear_150_47" x1="37" y1="336.429" x2="24" y2="336.429" gradientUnits="userSpaceOnUse">
<stop/>
<stop offset="1" stop-color="white"/>
</linearGradient>
</defs>
</svg>
