<svg width="805" height="287" viewBox="0 0 805 287" fill="none" xmlns="http://www.w3.org/2000/svg">
<rect x="43" y="55" width="14" height="210" fill="black"/>
<rect x="20" y="55" width="17" height="210" fill="#3126FF"/>
<rect x="75" y="70" width="78" height="185" fill="#D4FF3F"/>
<path d="M175.4 217.6C175.4 234.8 171.4 247 163.4 254.2C155.6 261.4 142.6 265 124.4 265H62.6V55H120.8C138.8 55 152.4 58.7 161.6 66.1C170.8 73.3 175.4 85.2 175.4 101.8V217.6ZM149.3 99.1C149.3 92.5 147.3 87.3 143.3 83.5C139.3 79.5 134 77.5 127.4 77.5H88.7V242.5H127.1C134.7 242.5 140.3 240.8 143.9 237.4C147.5 233.8 149.3 228.2 149.3 220.6V99.1Z" fill="black"/>
<path d="M295.7 187.3C295.7 195.9 293.7 202 289.7 205.6C285.8 209.2 279.3 211 270.2 211H239.3V106H268.4C277.4 106 284.2 107.85 288.8 111.55C293.4 115.15 295.7 121.1 295.7 129.4V187.3ZM282.65 128.05C282.65 124.75 281.65 122.15 279.65 120.25C277.65 118.25 275 117.25 271.7 117.25H252.35V199.75H271.55C275.35 199.75 278.15 198.9 279.95 197.2C281.75 195.4 282.65 192.6 282.65 188.8V128.05ZM373.556 106V116.95H336.506V151.3H369.806V162.25H336.506V200.05H373.556V211H323.456V106H373.556ZM414.212 172.3V211H401.162V106H414.212V151.3L442.712 106H456.962L428.012 152.35L458.762 211H443.762L419.912 163.75L414.212 172.3ZM540.518 185.5C540.518 194 538.168 200.4 533.468 204.7C528.868 208.9 522.218 211 513.518 211H507.518C498.818 211 492.118 208.9 487.418 204.7C482.818 200.4 480.518 194 480.518 185.5V131.5C480.518 123 482.818 116.65 487.418 112.45C492.118 108.15 498.818 106 507.518 106H513.518C522.218 106 528.868 108.15 533.468 112.45C538.168 116.65 540.518 123 540.518 131.5V185.5ZM527.468 128.65C527.468 125.55 526.318 122.9 524.018 120.7C521.718 118.5 518.718 117.4 515.018 117.4H506.018C502.318 117.4 499.318 118.5 497.018 120.7C494.718 122.9 493.568 125.55 493.568 128.65V188.35C493.568 191.45 494.718 194.1 497.018 196.3C499.318 198.5 502.318 199.6 506.018 199.6H515.018C518.718 199.6 521.718 198.5 524.018 196.3C526.318 194.1 527.468 191.45 527.468 188.35V128.65ZM619.723 187.3C619.723 195.9 617.723 202 613.723 205.6C609.823 209.2 603.323 211 594.223 211H563.323V106H592.423C601.423 106 608.223 107.85 612.823 111.55C617.423 115.15 619.723 121.1 619.723 129.4V187.3ZM606.673 128.05C606.673 124.75 605.673 122.15 603.673 120.25C601.673 118.25 599.023 117.25 595.723 117.25H576.373V199.75H595.573C599.373 199.75 602.173 198.9 603.973 197.2C605.773 195.4 606.673 192.6 606.673 188.8V128.05ZM691.579 84.85L671.779 102.1H659.329L674.929 84.85H691.579ZM697.579 106V116.95H660.529V151.3H693.829V162.25H660.529V200.05H697.579V211H647.479V106H697.579ZM736.585 167.5V211H723.535V106H751.735C760.235 106 766.635 107.9 770.935 111.7C775.335 115.4 777.535 121.3 777.535 129.4V143.8C777.535 155.1 773.035 162.15 764.035 164.95L784.885 211H770.635L751.285 167.5H736.585ZM764.485 128.05C764.485 124.25 763.585 121.5 761.785 119.8C760.085 118.1 757.335 117.25 753.535 117.25H736.585V156.25H753.535C757.335 156.25 760.085 155.4 761.785 153.7C763.585 151.9 764.485 149.1 764.485 145.3V128.05Z" fill="black"/>
<path d="M745 18H763C765.761 18 768 20.2386 768 23V28C768 30.7614 765.761 33 763 33H745V18Z" fill="#D4FF3F"/>
<path d="M772 18H790C792.761 18 795 20.2386 795 23V28C795 30.7614 792.761 33 790 33H772V18Z" fill="#3126FF"/>
<rect x="217" y="106" width="20" height="105" fill="url(#paint0_linear_150_60)" fill-opacity="0.5"/>
<path d="M251.936 242.192H254.56V262H251.936V252.784H244.064V262H241.44V242.192H244.064V250.544H251.936V242.192ZM269.792 248.24C269.792 249.456 269.472 250.533 268.832 251.472C268.192 252.389 267.328 253.104 266.24 253.616C266.56 254.128 266.912 254.715 267.296 255.376C267.701 256.016 268.107 256.709 268.512 257.456C268.917 258.181 269.312 258.939 269.696 259.728C270.101 260.496 270.475 261.253 270.816 262H268C267.36 260.464 266.656 258.992 265.888 257.584C265.141 256.176 264.416 255.035 263.712 254.16C263.584 254.181 263.392 254.192 263.136 254.192C262.901 254.192 262.741 254.192 262.656 254.192H260.416V262H257.76V242.48C258.08 242.395 258.443 242.32 258.848 242.256C259.275 242.192 259.701 242.149 260.128 242.128C260.576 242.085 261.013 242.053 261.44 242.032C261.867 242.011 262.251 242 262.592 242C264.981 242 266.773 242.523 267.968 243.568C269.184 244.613 269.792 246.171 269.792 248.24ZM262.816 244.272C262.325 244.272 261.845 244.283 261.376 244.304C260.928 244.304 260.608 244.325 260.416 244.368V252.016H262.112C262.88 252.016 263.563 251.963 264.16 251.856C264.779 251.749 265.301 251.557 265.728 251.28C266.176 250.981 266.517 250.587 266.752 250.096C266.987 249.584 267.104 248.923 267.104 248.112C267.104 247.344 266.987 246.715 266.752 246.224C266.517 245.733 266.208 245.349 265.824 245.072C265.44 244.773 264.981 244.571 264.448 244.464C263.936 244.336 263.392 244.272 262.816 244.272ZM278.72 262V254.64C277.419 252.507 276.235 250.427 275.168 248.4C274.123 246.373 273.205 244.304 272.416 242.192H275.36C275.979 243.984 276.683 245.701 277.472 247.344C278.283 248.965 279.147 250.64 280.064 252.368C281.045 250.555 281.909 248.837 282.656 247.216C283.424 245.573 284.117 243.899 284.736 242.192H287.616C286.805 244.283 285.877 246.32 284.832 248.304C283.787 250.288 282.624 252.379 281.344 254.576V262H278.72ZM316.928 262L315.744 256.816H308.128L306.976 262H304.288C304.651 260.592 305.056 259.067 305.504 257.424C305.952 255.781 306.432 254.096 306.944 252.368C307.477 250.64 308.032 248.912 308.608 247.184C309.184 245.435 309.792 243.771 310.432 242.192H313.696C314.315 243.771 314.901 245.435 315.456 247.184C316.032 248.912 316.565 250.64 317.056 252.368C317.568 254.096 318.048 255.781 318.496 257.424C318.944 259.067 319.349 260.592 319.712 262H316.928ZM311.968 244.496C311.477 245.84 310.944 247.397 310.368 249.168C309.792 250.939 309.248 252.763 308.736 254.64H315.136C314.645 252.72 314.112 250.875 313.536 249.104C312.981 247.312 312.459 245.776 311.968 244.496ZM350.752 242.192V244.432H345.312V262H342.688V244.432H337.248V242.192H350.752ZM354.912 262V242.192H366.016V244.432H357.536V250.512H364.96V252.752H357.536V259.76H366.72V262H354.912ZM382.72 261.168C381.973 261.595 381.173 261.904 380.32 262.096C379.488 262.309 378.592 262.416 377.632 262.416C376.459 262.416 375.371 262.213 374.368 261.808C373.387 261.381 372.533 260.752 371.808 259.92C371.083 259.067 370.507 257.989 370.08 256.688C369.675 255.387 369.472 253.851 369.472 252.08C369.472 250.395 369.685 248.912 370.112 247.632C370.56 246.352 371.157 245.275 371.904 244.4C372.651 243.525 373.525 242.864 374.528 242.416C375.531 241.968 376.597 241.744 377.728 241.744C378.517 241.744 379.317 241.851 380.128 242.064C380.96 242.277 381.771 242.629 382.56 243.12L381.792 245.296C380.384 244.485 379.061 244.08 377.824 244.08C376.949 244.08 376.16 244.272 375.456 244.656C374.773 245.019 374.187 245.552 373.696 246.256C373.205 246.96 372.821 247.803 372.544 248.784C372.288 249.765 372.16 250.864 372.16 252.08C372.16 253.445 372.299 254.629 372.576 255.632C372.875 256.635 373.28 257.467 373.792 258.128C374.304 258.789 374.912 259.28 375.616 259.6C376.341 259.92 377.12 260.08 377.952 260.08C378.571 260.08 379.221 260.005 379.904 259.856C380.587 259.685 381.291 259.397 382.016 258.992L382.72 261.168ZM395.936 242.192H398.56V262H395.936V252.784H388.064V262H385.44V242.192H388.064V250.544H395.936V242.192ZM411.552 262C410.827 260.229 410.144 258.629 409.504 257.2C408.864 255.749 408.245 254.395 407.648 253.136C407.072 251.877 406.496 250.693 405.92 249.584C405.344 248.453 404.757 247.323 404.16 246.192V262H401.76V242.192H404.448C405.323 243.792 406.08 245.189 406.72 246.384C407.381 247.579 407.979 248.741 408.512 249.872C409.067 250.981 409.6 252.133 410.112 253.328C410.624 254.501 411.2 255.867 411.84 257.424V242.192H414.24V262H411.552ZM416.928 252.08C416.928 250.309 417.099 248.773 417.44 247.472C417.781 246.171 418.261 245.104 418.88 244.272C419.499 243.419 420.235 242.789 421.088 242.384C421.963 241.957 422.933 241.744 424 241.744C425.045 241.744 426.005 241.957 426.88 242.384C427.755 242.789 428.501 243.419 429.12 244.272C429.739 245.104 430.219 246.171 430.56 247.472C430.923 248.773 431.104 250.309 431.104 252.08C431.104 253.851 430.923 255.387 430.56 256.688C430.219 257.989 429.739 259.067 429.12 259.92C428.501 260.773 427.755 261.403 426.88 261.808C426.005 262.213 425.045 262.416 424 262.416C422.933 262.416 421.963 262.213 421.088 261.808C420.235 261.403 419.499 260.773 418.88 259.92C418.261 259.067 417.781 257.989 417.44 256.688C417.099 255.387 416.928 253.851 416.928 252.08ZM419.616 252.08C419.616 254.683 419.968 256.677 420.672 258.064C421.376 259.451 422.464 260.144 423.936 260.144C425.429 260.144 426.549 259.451 427.296 258.064C428.043 256.677 428.416 254.683 428.416 252.08C428.416 249.477 428.043 247.483 427.296 246.096C426.549 244.709 425.429 244.016 423.936 244.016C422.464 244.016 421.376 244.709 420.672 246.096C419.968 247.483 419.616 249.477 419.616 252.08ZM446.72 259.76V262H434.912V242.192H437.536V259.76H446.72ZM448.928 252.08C448.928 250.309 449.099 248.773 449.44 247.472C449.781 246.171 450.261 245.104 450.88 244.272C451.499 243.419 452.235 242.789 453.088 242.384C453.963 241.957 454.933 241.744 456 241.744C457.045 241.744 458.005 241.957 458.88 242.384C459.755 242.789 460.501 243.419 461.12 244.272C461.739 245.104 462.219 246.171 462.56 247.472C462.923 248.773 463.104 250.309 463.104 252.08C463.104 253.851 462.923 255.387 462.56 256.688C462.219 257.989 461.739 259.067 461.12 259.92C460.501 260.773 459.755 261.403 458.88 261.808C458.005 262.213 457.045 262.416 456 262.416C454.933 262.416 453.963 262.213 453.088 261.808C452.235 261.403 451.499 260.773 450.88 259.92C450.261 259.067 449.781 257.989 449.44 256.688C449.099 255.387 448.928 253.851 448.928 252.08ZM451.616 252.08C451.616 254.683 451.968 256.677 452.672 258.064C453.376 259.451 454.464 260.144 455.936 260.144C457.429 260.144 458.549 259.451 459.296 258.064C460.043 256.677 460.416 254.683 460.416 252.08C460.416 249.477 460.043 247.483 459.296 246.096C458.549 244.709 457.429 244.016 455.936 244.016C454.464 244.016 453.376 244.709 452.672 246.096C451.968 247.483 451.616 249.477 451.616 252.08ZM475.936 252.24H478.56V261.52C478.155 261.669 477.504 261.851 476.608 262.064C475.712 262.299 474.656 262.416 473.44 262.416C472.245 262.416 471.157 262.192 470.176 261.744C469.195 261.275 468.352 260.603 467.648 259.728C466.965 258.853 466.432 257.776 466.048 256.496C465.664 255.195 465.472 253.723 465.472 252.08C465.472 250.416 465.685 248.944 466.112 247.664C466.539 246.384 467.115 245.307 467.84 244.432C468.587 243.557 469.451 242.896 470.432 242.448C471.413 241.979 472.469 241.744 473.6 241.744C474.325 241.744 474.965 241.797 475.52 241.904C476.075 242.011 476.544 242.139 476.928 242.288C477.333 242.437 477.664 242.597 477.92 242.768C478.176 242.917 478.368 243.035 478.496 243.12L477.632 245.328C477.141 244.944 476.555 244.635 475.872 244.4C475.211 244.144 474.507 244.016 473.76 244.016C472.949 244.016 472.192 244.208 471.488 244.592C470.805 244.976 470.219 245.52 469.728 246.224C469.237 246.928 468.853 247.781 468.576 248.784C468.299 249.765 468.16 250.864 468.16 252.08C468.16 253.275 468.277 254.363 468.512 255.344C468.768 256.325 469.131 257.168 469.6 257.872C470.069 258.576 470.645 259.131 471.328 259.536C472.032 259.92 472.832 260.112 473.728 260.112C474.347 260.112 474.827 260.069 475.168 259.984C475.509 259.899 475.765 259.813 475.936 259.728V252.24ZM489.312 244.432V259.76H493.152V262H482.848V259.76H486.688V244.432H482.848V242.192H493.152V244.432H489.312ZM498.912 262V242.192H510.016V244.432H501.536V250.512H508.96V252.752H501.536V259.76H510.72V262H498.912ZM542.304 244.24C541.621 245.179 540.853 246.299 540 247.6C539.168 248.88 538.315 250.224 537.44 251.632C536.565 253.04 535.712 254.459 534.88 255.888C534.069 257.296 533.355 258.587 532.736 259.76H542.56V262H529.728V260.272C530.389 258.928 531.115 257.552 531.904 256.144C532.715 254.715 533.536 253.317 534.368 251.952C535.2 250.587 536.032 249.264 536.864 247.984C537.696 246.704 538.496 245.52 539.264 244.432H530.208V242.192H542.304V244.24ZM546.912 262V242.192H558.016V244.432H549.536V250.512H556.96V252.752H549.536V259.76H558.72V262H546.912ZM563.264 242.192C563.52 243.536 563.84 245.008 564.224 246.608C564.629 248.187 565.045 249.776 565.472 251.376C565.92 252.955 566.368 254.469 566.816 255.92C567.264 257.371 567.68 258.64 568.064 259.728C568.405 258.64 568.8 257.36 569.248 255.888C569.717 254.416 570.176 252.891 570.624 251.312C571.072 249.712 571.488 248.123 571.872 246.544C572.277 244.965 572.608 243.515 572.864 242.192H575.616C575.445 243.045 575.168 244.197 574.784 245.648C574.4 247.077 573.941 248.688 573.408 250.48C572.875 252.251 572.277 254.139 571.616 256.144C570.976 258.128 570.304 260.08 569.6 262H566.336C565.675 260.08 565.024 258.128 564.384 256.144C563.765 254.16 563.189 252.283 562.656 250.512C562.123 248.72 561.664 247.099 561.28 245.648C560.896 244.197 560.608 243.045 560.416 242.192H563.264ZM587.552 262C586.827 260.229 586.144 258.629 585.504 257.2C584.864 255.749 584.245 254.395 583.648 253.136C583.072 251.877 582.496 250.693 581.92 249.584C581.344 248.453 580.757 247.323 580.16 246.192V262H577.76V242.192H580.448C581.323 243.792 582.08 245.189 582.72 246.384C583.381 247.579 583.979 248.741 584.512 249.872C585.067 250.981 585.6 252.133 586.112 253.328C586.624 254.501 587.2 255.867 587.84 257.424V242.192H590.24V262H587.552ZM601.312 244.432V259.76H605.152V262H594.848V259.76H598.688V244.432H594.848V242.192H605.152V244.432H601.312ZM622.752 242.192V244.432H617.312V262H614.688V244.432H609.248V242.192H622.752ZM637.792 248.24C637.792 249.456 637.472 250.533 636.832 251.472C636.192 252.389 635.328 253.104 634.24 253.616C634.56 254.128 634.912 254.715 635.296 255.376C635.701 256.016 636.107 256.709 636.512 257.456C636.917 258.181 637.312 258.939 637.696 259.728C638.101 260.496 638.475 261.253 638.816 262H636C635.36 260.464 634.656 258.992 633.888 257.584C633.141 256.176 632.416 255.035 631.712 254.16C631.584 254.181 631.392 254.192 631.136 254.192C630.901 254.192 630.741 254.192 630.656 254.192H628.416V262H625.76V242.48C626.08 242.395 626.443 242.32 626.848 242.256C627.275 242.192 627.701 242.149 628.128 242.128C628.576 242.085 629.013 242.053 629.44 242.032C629.867 242.011 630.251 242 630.592 242C632.981 242 634.773 242.523 635.968 243.568C637.184 244.613 637.792 246.171 637.792 248.24ZM630.816 244.272C630.325 244.272 629.845 244.283 629.376 244.304C628.928 244.304 628.608 244.325 628.416 244.368V252.016H630.112C630.88 252.016 631.563 251.963 632.16 251.856C632.779 251.749 633.301 251.557 633.728 251.28C634.176 250.981 634.517 250.587 634.752 250.096C634.987 249.584 635.104 248.923 635.104 248.112C635.104 247.344 634.987 246.715 634.752 246.224C634.517 245.733 634.208 245.349 633.824 245.072C633.44 244.773 632.981 244.571 632.448 244.464C631.936 244.336 631.392 244.272 630.816 244.272ZM627.296 236.72L628.384 235.472L631.168 237.968L633.952 235.472L635.04 236.72L631.168 240.816L627.296 236.72Z" fill="#909090"/>
<defs>
<linearGradient id="paint0_linear_150_60" x1="237" y1="156" x2="217" y2="156" gradientUnits="userSpaceOnUse">
<stop/>
<stop offset="1" stop-color="white"/>
</linearGradient>
</defs>
</svg>
