<svg width="359" height="113" viewBox="0 0 359 113" fill="none" xmlns="http://www.w3.org/2000/svg">
<path d="M91.087 95.239H92.645V107H91.087V101.528H86.413V107H84.855V95.239H86.413V100.198H91.087V95.239ZM101.689 98.83C101.689 99.552 101.499 100.192 101.119 100.749C100.739 101.294 100.226 101.718 99.58 102.022C99.77 102.326 99.979 102.674 100.207 103.067C100.448 103.447 100.688 103.859 100.929 104.302C101.17 104.733 101.404 105.182 101.632 105.651C101.873 106.107 102.094 106.557 102.297 107H100.625C100.245 106.088 99.827 105.214 99.371 104.378C98.9277 103.542 98.497 102.864 98.079 102.345C98.003 102.358 97.889 102.364 97.737 102.364C97.5977 102.364 97.5027 102.364 97.452 102.364H96.122V107H94.545V95.41C94.735 95.3593 94.9503 95.315 95.191 95.277C95.4443 95.239 95.6977 95.2137 95.951 95.201C96.217 95.1757 96.4767 95.1567 96.73 95.144C96.9833 95.1313 97.2113 95.125 97.414 95.125C98.8327 95.125 99.8967 95.4353 100.606 96.056C101.328 96.6767 101.689 97.6013 101.689 98.83ZM97.547 96.474C97.2557 96.474 96.9707 96.4803 96.692 96.493C96.426 96.493 96.236 96.5057 96.122 96.531V101.072H97.129C97.585 101.072 97.9903 101.04 98.345 100.977C98.7123 100.914 99.0227 100.8 99.276 100.635C99.542 100.458 99.7447 100.223 99.884 99.932C100.023 99.628 100.093 99.2353 100.093 98.754C100.093 98.298 100.023 97.9243 99.884 97.633C99.7447 97.3417 99.561 97.1137 99.333 96.949C99.105 96.7717 98.8327 96.6513 98.516 96.588C98.212 96.512 97.889 96.474 97.547 96.474ZM106.99 107V102.63C106.217 101.363 105.514 100.128 104.881 98.925C104.26 97.7217 103.716 96.493 103.247 95.239H104.995C105.362 96.303 105.78 97.3227 106.249 98.298C106.73 99.2607 107.243 100.255 107.788 101.281C108.371 100.204 108.884 99.1847 109.327 98.222C109.783 97.2467 110.195 96.2523 110.562 95.239H112.272C111.791 96.4803 111.24 97.69 110.619 98.868C109.998 100.046 109.308 101.287 108.548 102.592V107H106.99ZM152.419 95.239V96.569H149.189V107H147.631V96.569H144.401V95.239H152.419ZM154.889 107V95.239H161.482V96.569H156.447V100.179H160.855V101.509H156.447V105.67H161.9V107H154.889ZM171.4 106.506C170.957 106.759 170.482 106.943 169.975 107.057C169.481 107.184 168.949 107.247 168.379 107.247C167.682 107.247 167.036 107.127 166.441 106.886C165.858 106.633 165.352 106.259 164.921 105.765C164.49 105.258 164.148 104.619 163.895 103.846C163.654 103.073 163.534 102.161 163.534 101.11C163.534 100.109 163.661 99.229 163.914 98.469C164.18 97.709 164.535 97.0693 164.978 96.55C165.421 96.0307 165.941 95.638 166.536 95.372C167.131 95.106 167.765 94.973 168.436 94.973C168.905 94.973 169.38 95.0363 169.861 95.163C170.355 95.2897 170.836 95.4987 171.305 95.79L170.849 97.082C170.013 96.6007 169.228 96.36 168.493 96.36C167.974 96.36 167.505 96.474 167.087 96.702C166.682 96.9173 166.333 97.234 166.042 97.652C165.751 98.07 165.523 98.5703 165.358 99.153C165.206 99.7357 165.13 100.388 165.13 101.11C165.13 101.921 165.212 102.624 165.377 103.219C165.554 103.814 165.795 104.308 166.099 104.701C166.403 105.094 166.764 105.385 167.182 105.575C167.613 105.765 168.075 105.86 168.569 105.86C168.936 105.86 169.323 105.816 169.728 105.727C170.133 105.626 170.551 105.455 170.982 105.214L171.4 106.506ZM179.247 95.239H180.805V107H179.247V101.528H174.573V107H173.015V95.239H174.573V100.198H179.247V95.239ZM188.519 107C188.088 105.949 187.683 104.999 187.303 104.15C186.923 103.289 186.556 102.484 186.201 101.737C185.859 100.99 185.517 100.287 185.175 99.628C184.833 98.9567 184.485 98.2853 184.13 97.614V107H182.705V95.239H184.301C184.82 96.189 185.27 97.0187 185.65 97.728C186.043 98.4373 186.397 99.1277 186.714 99.799C187.043 100.458 187.36 101.142 187.664 101.851C187.968 102.548 188.31 103.358 188.69 104.283V95.239H190.115V107H188.519ZM191.711 101.11C191.711 100.059 191.812 99.1467 192.015 98.374C192.218 97.6013 192.503 96.968 192.87 96.474C193.237 95.9673 193.674 95.5937 194.181 95.353C194.7 95.0997 195.277 94.973 195.91 94.973C196.531 94.973 197.101 95.0997 197.62 95.353C198.139 95.5937 198.583 95.9673 198.95 96.474C199.317 96.968 199.602 97.6013 199.805 98.374C200.02 99.1467 200.128 100.059 200.128 101.11C200.128 102.161 200.02 103.073 199.805 103.846C199.602 104.619 199.317 105.258 198.95 105.765C198.583 106.272 198.139 106.645 197.62 106.886C197.101 107.127 196.531 107.247 195.91 107.247C195.277 107.247 194.7 107.127 194.181 106.886C193.674 106.645 193.237 106.272 192.87 105.765C192.503 105.258 192.218 104.619 192.015 103.846C191.812 103.073 191.711 102.161 191.711 101.11ZM193.307 101.11C193.307 102.655 193.516 103.84 193.934 104.663C194.352 105.486 194.998 105.898 195.872 105.898C196.759 105.898 197.424 105.486 197.867 104.663C198.31 103.84 198.532 102.655 198.532 101.11C198.532 99.5647 198.31 98.3803 197.867 97.557C197.424 96.7337 196.759 96.322 195.872 96.322C194.998 96.322 194.352 96.7337 193.934 97.557C193.516 98.3803 193.307 99.5647 193.307 101.11ZM209.4 105.67V107H202.389V95.239H203.947V105.67H209.4ZM210.711 101.11C210.711 100.059 210.812 99.1467 211.015 98.374C211.218 97.6013 211.503 96.968 211.87 96.474C212.237 95.9673 212.674 95.5937 213.181 95.353C213.7 95.0997 214.277 94.973 214.91 94.973C215.531 94.973 216.101 95.0997 216.62 95.353C217.139 95.5937 217.583 95.9673 217.95 96.474C218.317 96.968 218.602 97.6013 218.805 98.374C219.02 99.1467 219.128 100.059 219.128 101.11C219.128 102.161 219.02 103.073 218.805 103.846C218.602 104.619 218.317 105.258 217.95 105.765C217.583 106.272 217.139 106.645 216.62 106.886C216.101 107.127 215.531 107.247 214.91 107.247C214.277 107.247 213.7 107.127 213.181 106.886C212.674 106.645 212.237 106.272 211.87 105.765C211.503 105.258 211.218 104.619 211.015 103.846C210.812 103.073 210.711 102.161 210.711 101.11ZM212.307 101.11C212.307 102.655 212.516 103.84 212.934 104.663C213.352 105.486 213.998 105.898 214.872 105.898C215.759 105.898 216.424 105.486 216.867 104.663C217.31 103.84 217.532 102.655 217.532 101.11C217.532 99.5647 217.31 98.3803 216.867 97.557C216.424 96.7337 215.759 96.322 214.872 96.322C213.998 96.322 213.352 96.7337 212.934 97.557C212.516 98.3803 212.307 99.5647 212.307 101.11ZM226.747 101.205H228.305V106.715C228.064 106.804 227.678 106.911 227.146 107.038C226.614 107.177 225.987 107.247 225.265 107.247C224.556 107.247 223.91 107.114 223.327 106.848C222.744 106.569 222.244 106.17 221.826 105.651C221.421 105.132 221.104 104.492 220.876 103.732C220.648 102.959 220.534 102.085 220.534 101.11C220.534 100.122 220.661 99.248 220.914 98.488C221.167 97.728 221.509 97.0883 221.94 96.569C222.383 96.0497 222.896 95.657 223.479 95.391C224.062 95.1123 224.689 94.973 225.36 94.973C225.791 94.973 226.171 95.0047 226.5 95.068C226.829 95.1313 227.108 95.2073 227.336 95.296C227.577 95.3847 227.773 95.4797 227.925 95.581C228.077 95.6697 228.191 95.7393 228.267 95.79L227.754 97.101C227.463 96.873 227.114 96.6893 226.709 96.55C226.316 96.398 225.898 96.322 225.455 96.322C224.974 96.322 224.524 96.436 224.106 96.664C223.701 96.892 223.352 97.215 223.061 97.633C222.77 98.051 222.542 98.5577 222.377 99.153C222.212 99.7357 222.13 100.388 222.13 101.11C222.13 101.819 222.2 102.465 222.339 103.048C222.491 103.631 222.706 104.131 222.985 104.549C223.264 104.967 223.606 105.296 224.011 105.537C224.429 105.765 224.904 105.879 225.436 105.879C225.803 105.879 226.088 105.854 226.291 105.803C226.494 105.752 226.646 105.702 226.747 105.651V101.205ZM234.689 96.569V105.67H236.969V107H230.851V105.67H233.131V96.569H230.851V95.239H236.969V96.569H234.689ZM240.389 107V95.239H246.982V96.569H241.947V100.179H246.355V101.509H241.947V105.67H247.4V107H240.389ZM286.863 96.455C286.458 97.0123 286.002 97.6773 285.495 98.45C285.001 99.21 284.494 100.008 283.975 100.844C283.456 101.68 282.949 102.522 282.455 103.371C281.974 104.207 281.549 104.973 281.182 105.67H287.015V107H279.396V105.974C279.789 105.176 280.219 104.359 280.688 103.523C281.169 102.674 281.657 101.845 282.151 101.034C282.645 100.223 283.139 99.438 283.633 98.678C284.127 97.918 284.602 97.215 285.058 96.569H279.681V95.239H286.863V96.455ZM295.546 107L294.843 103.922H290.321L289.637 107H288.041C288.256 106.164 288.497 105.258 288.763 104.283C289.029 103.308 289.314 102.307 289.618 101.281C289.935 100.255 290.264 99.229 290.606 98.203C290.948 97.1643 291.309 96.1763 291.689 95.239H293.627C293.994 96.1763 294.343 97.1643 294.672 98.203C295.014 99.229 295.331 100.255 295.622 101.281C295.926 102.307 296.211 103.308 296.477 104.283C296.743 105.258 296.984 106.164 297.199 107H295.546ZM292.601 96.607C292.31 97.405 291.993 98.3297 291.651 99.381C291.309 100.432 290.986 101.515 290.682 102.63H294.482C294.191 101.49 293.874 100.394 293.532 99.343C293.203 98.279 292.892 97.367 292.601 96.607ZM294.235 92.237L291.841 94.555L291.043 93.852L293.209 91.23L294.235 92.237ZM306.3 95.239C305.679 96.1637 304.995 97.082 304.248 97.994C303.513 98.906 302.715 99.818 301.854 100.73C302.259 101.072 302.69 101.471 303.146 101.927C303.602 102.383 304.045 102.883 304.476 103.428C304.919 103.96 305.331 104.53 305.711 105.138C306.104 105.746 306.433 106.367 306.699 107H304.932C304.615 106.417 304.273 105.847 303.906 105.29C303.539 104.733 303.146 104.213 302.728 103.732C302.323 103.251 301.898 102.814 301.455 102.421C301.024 102.016 300.587 101.667 300.144 101.376V107H298.586V95.239H300.144V100.483C300.967 99.6343 301.753 98.7477 302.5 97.823C303.26 96.8983 303.925 96.037 304.495 95.239H306.3ZM311.62 107.247C310.923 107.247 310.328 107.146 309.834 106.943C309.353 106.74 308.96 106.455 308.656 106.088C308.352 105.721 308.13 105.271 307.991 104.739C307.852 104.207 307.782 103.612 307.782 102.953V95.239H309.34V102.782C309.34 103.377 309.391 103.878 309.492 104.283C309.606 104.676 309.758 104.992 309.948 105.233C310.151 105.474 310.391 105.645 310.67 105.746C310.949 105.847 311.265 105.898 311.62 105.898C311.975 105.898 312.291 105.847 312.57 105.746C312.849 105.645 313.083 105.474 313.273 105.233C313.476 104.992 313.628 104.676 313.729 104.283C313.843 103.878 313.9 103.377 313.9 102.782V95.239H315.458V102.953C315.458 103.612 315.388 104.207 315.249 104.739C315.11 105.271 314.888 105.721 314.584 106.088C314.28 106.455 313.881 106.74 313.387 106.943C312.906 107.146 312.317 107.247 311.62 107.247ZM325.11 105.67V107H318.099V95.239H319.657V105.67H325.11ZM331.399 96.569V105.67H333.679V107H327.561V105.67H329.841V96.569H327.561V95.239H333.679V96.569H331.399ZM339.816 105.898C340.614 105.898 341.222 105.746 341.64 105.442C342.058 105.138 342.267 104.682 342.267 104.074C342.267 103.707 342.191 103.396 342.039 103.143C341.887 102.877 341.684 102.649 341.431 102.459C341.178 102.256 340.893 102.085 340.576 101.946C340.259 101.794 339.936 101.655 339.607 101.528C339.227 101.376 338.86 101.205 338.505 101.015C338.163 100.825 337.853 100.603 337.574 100.35C337.308 100.097 337.093 99.799 336.928 99.457C336.776 99.115 336.7 98.7097 336.7 98.241C336.7 97.215 337.023 96.417 337.669 95.847C338.315 95.2643 339.214 94.973 340.367 94.973C340.684 94.973 340.994 94.9983 341.298 95.049C341.615 95.087 341.906 95.1377 342.172 95.201C342.438 95.2643 342.672 95.3403 342.875 95.429C343.09 95.5177 343.261 95.6063 343.388 95.695L342.894 97.006C342.641 96.854 342.292 96.702 341.849 96.55C341.406 96.398 340.912 96.322 340.367 96.322C339.797 96.322 339.303 96.4677 338.885 96.759C338.467 97.0377 338.258 97.462 338.258 98.032C338.258 98.3613 338.315 98.64 338.429 98.868C338.556 99.096 338.72 99.2987 338.923 99.476C339.138 99.6407 339.385 99.7927 339.664 99.932C339.943 100.071 340.247 100.211 340.576 100.35C341.057 100.553 341.494 100.755 341.887 100.958C342.292 101.161 342.634 101.401 342.913 101.68C343.204 101.959 343.426 102.288 343.578 102.668C343.743 103.048 343.825 103.51 343.825 104.055C343.825 105.081 343.477 105.873 342.78 106.43C342.096 106.975 341.108 107.247 339.816 107.247C339.398 107.247 339.005 107.215 338.638 107.152C338.271 107.101 337.941 107.032 337.65 106.943C337.371 106.854 337.124 106.766 336.909 106.677C336.694 106.588 336.529 106.506 336.415 106.43L336.89 105.138C337.143 105.277 337.517 105.442 338.011 105.632C338.505 105.809 339.107 105.898 339.816 105.898ZM350.399 96.569V105.67H352.679V107H346.561V105.67H348.841V96.569H346.561V95.239H352.679V96.569H350.399ZM351.482 92.237L349.088 94.555L348.29 93.852L350.456 91.23L351.482 92.237Z" fill="#909090"/>
<path d="M125.198 98H128.558C128.782 98 129.006 98.0933 129.23 98.28L129.566 98.56C129.79 98.7467 129.902 98.98 129.902 99.26V103.74C129.902 104.02 129.79 104.253 129.566 104.44L129.23 104.72C129.006 104.907 128.782 105 128.558 105H125.198C124.974 105 124.75 104.907 124.526 104.72L124.19 104.44C123.966 104.253 123.854 104.02 123.854 103.74V99.26C123.854 98.98 123.966 98.7467 124.19 98.56L124.526 98.28C124.75 98.0933 124.974 98 125.198 98ZM128.726 103.446V99.554C128.726 99.414 128.717 99.3253 128.698 99.288C128.689 99.2413 128.642 99.1853 128.558 99.12C128.474 99.0547 128.409 99.0173 128.362 99.008C128.315 98.9893 128.208 98.98 128.04 98.98H125.716C125.548 98.98 125.441 98.9893 125.394 99.008C125.347 99.0173 125.282 99.0547 125.198 99.12C125.114 99.1853 125.063 99.2413 125.044 99.288C125.035 99.3253 125.03 99.414 125.03 99.554V103.446C125.03 103.586 125.035 103.679 125.044 103.726C125.063 103.763 125.114 103.815 125.198 103.88C125.282 103.945 125.347 103.987 125.394 104.006C125.441 104.015 125.548 104.02 125.716 104.02H128.04C128.208 104.02 128.315 104.015 128.362 104.006C128.409 103.987 128.474 103.945 128.558 103.88C128.642 103.815 128.689 103.763 128.698 103.726C128.717 103.679 128.726 103.586 128.726 103.446Z" fill="#909090"/>
<rect x="125" y="99" width="4" height="5" fill="#909090"/>
<path d="M262.198 97H265.558C265.782 97 266.006 97.0933 266.23 97.28L266.566 97.56C266.79 97.7467 266.902 97.98 266.902 98.26V102.74C266.902 103.02 266.79 103.253 266.566 103.44L266.23 103.72C266.006 103.907 265.782 104 265.558 104H262.198C261.974 104 261.75 103.907 261.526 103.72L261.19 103.44C260.966 103.253 260.854 103.02 260.854 102.74V98.26C260.854 97.98 260.966 97.7467 261.19 97.56L261.526 97.28C261.75 97.0933 261.974 97 262.198 97ZM265.726 102.446V98.554C265.726 98.414 265.717 98.3253 265.698 98.288C265.689 98.2413 265.642 98.1853 265.558 98.12C265.474 98.0547 265.409 98.0173 265.362 98.008C265.315 97.9893 265.208 97.98 265.04 97.98H262.716C262.548 97.98 262.441 97.9893 262.394 98.008C262.347 98.0173 262.282 98.0547 262.198 98.12C262.114 98.1853 262.063 98.2413 262.044 98.288C262.035 98.3253 262.03 98.414 262.03 98.554V102.446C262.03 102.586 262.035 102.679 262.044 102.726C262.063 102.763 262.114 102.815 262.198 102.88C262.282 102.945 262.347 102.987 262.394 103.006C262.441 103.015 262.548 103.02 262.716 103.02H265.04C265.208 103.02 265.315 103.015 265.362 103.006C265.409 102.987 265.474 102.945 265.558 102.88C265.642 102.815 265.689 102.763 265.698 102.726C265.717 102.679 265.726 102.586 265.726 102.446Z" fill="#909090"/>
<rect x="262" y="98" width="4" height="5" fill="#909090"/>
<rect x="11" y="32" width="51" height="47" fill="#D4FF3F"/>
<rect x="22" y="35" width="8" height="44" fill="#5B4DFF"/>
<rect x="35" y="35" width="5" height="44" fill="#5B4DFF"/>
<rect x="45" y="35" width="9" height="44" fill="#5B4DFF"/>
<path d="M36.566 26.088C43.146 26.088 48.6607 26.9027 53.11 28.532C57.5593 30.1613 61.1 32.386 63.732 35.206C66.364 37.9633 68.244 41.1593 69.372 44.794C70.5627 48.4287 71.158 52.2513 71.158 56.262C71.158 60.3353 70.5313 64.2207 69.278 67.918C68.0247 71.6153 66.0193 74.9053 63.262 77.788C60.5673 80.608 57.0267 82.864 52.64 84.556C48.2533 86.1853 42.8953 87 36.566 87H7.332V26.088H36.566ZM18.048 77.6H36.472C41.1093 77.6 44.9633 77.0047 48.034 75.814C51.1047 74.6233 53.5487 73.0253 55.366 71.02C57.1833 68.952 58.468 66.6647 59.22 64.158C59.972 61.5887 60.348 58.9567 60.348 56.262C60.348 53.5673 59.972 50.998 59.22 48.554C58.468 46.0473 57.1833 43.8227 55.366 41.88C53.5487 39.8747 51.1047 38.308 48.034 37.18C44.9633 35.9893 41.1093 35.394 36.472 35.394H18.048V77.6ZM110.508 71.584H120.566C120.065 74.78 118.811 77.6313 116.806 80.138C114.863 82.582 112.2 84.5247 108.816 85.966C105.432 87.3447 101.39 88.034 96.69 88.034C91.3634 88.034 86.6007 87.0627 82.402 85.12C78.2034 83.1147 74.9134 80.2947 72.532 76.66C70.1507 73.0253 68.96 68.7013 68.96 63.688C68.96 58.7373 70.1194 54.4133 72.438 50.716C74.7567 47.0187 77.9527 44.1673 82.026 42.162C86.162 40.1567 90.9247 39.154 96.314 39.154C101.891 39.154 106.529 40.1567 110.226 42.162C113.986 44.1047 116.775 47.05 118.592 50.998C120.409 54.8833 121.161 59.8027 120.848 65.756H79.582C79.8954 68.388 80.7414 70.7693 82.12 72.9C83.5614 74.968 85.504 76.5973 87.948 77.788C90.392 78.916 93.2434 79.48 96.502 79.48C100.137 79.48 103.176 78.7593 105.62 77.318C108.127 75.8767 109.756 73.9653 110.508 71.584ZM96.032 47.614C91.7707 47.614 88.2614 48.6793 85.504 50.81C82.7467 52.878 80.9607 55.5413 80.146 58.8H110.32C110.069 55.2907 108.659 52.5647 106.09 50.622C103.521 48.6167 100.168 47.614 96.032 47.614ZM121.694 21.388H132.128V87H121.694V21.388ZM168.6 40.188L142.374 64.252L142.656 57.672L170.574 87H157.226L132.41 60.774L154.124 40.188H168.6ZM190.332 88.034C185.131 88.034 180.462 87.094 176.326 85.214C172.19 83.334 168.932 80.5767 166.55 76.942C164.169 73.3073 162.978 68.8893 162.978 63.688C162.978 58.5493 164.169 54.1627 166.55 50.528C168.932 46.8307 172.19 44.0107 176.326 42.068C180.462 40.1253 185.131 39.154 190.332 39.154C195.534 39.154 200.171 40.1253 204.244 42.068C208.318 44.0107 211.514 46.8307 213.832 50.528C216.214 54.1627 217.404 58.5493 217.404 63.688C217.404 68.8893 216.214 73.3073 213.832 76.942C211.514 80.5767 208.318 83.334 204.244 85.214C200.171 87.094 195.534 88.034 190.332 88.034ZM190.332 79.48C193.34 79.48 196.098 78.8847 198.604 77.694C201.111 76.5033 203.085 74.7173 204.526 72.336C206.03 69.9547 206.782 67.072 206.782 63.688C206.782 60.304 206.03 57.4213 204.526 55.04C203.085 52.6587 201.111 50.8413 198.604 49.588C196.16 48.272 193.403 47.614 190.332 47.614C187.262 47.614 184.473 48.2407 181.966 49.494C179.46 50.7473 177.423 52.5647 175.856 54.946C174.352 57.3273 173.6 60.2413 173.6 63.688C173.6 67.072 174.352 69.9547 175.856 72.336C177.36 74.7173 179.366 76.5033 181.872 77.694C184.442 78.8847 187.262 79.48 190.332 79.48ZM238.211 88.034C233.887 88.034 229.939 87 226.367 84.932C222.857 82.864 220.069 80.0127 218.001 76.378C215.933 72.6807 214.899 68.4507 214.899 63.688C214.899 58.8 215.901 54.5387 217.907 50.904C219.975 47.2067 222.732 44.324 226.179 42.256C229.688 40.188 233.699 39.154 238.211 39.154C242.159 39.154 245.48 39.812 248.175 41.128C250.869 42.3813 253 44.136 254.567 46.392C256.133 48.5853 257.261 51.1547 257.951 54.1C258.703 57.0453 259.079 60.2413 259.079 63.688C259.079 66.2573 258.703 68.9833 257.951 71.866C257.199 74.686 256.008 77.318 254.379 79.762C252.812 82.206 250.681 84.2113 247.987 85.778C245.355 87.282 242.096 88.034 238.211 88.034ZM241.407 79.386C244.916 79.386 247.893 78.728 250.337 77.412C252.843 76.0333 254.723 74.1533 255.977 71.772C257.293 69.3907 257.951 66.696 257.951 63.688C257.951 60.3667 257.293 57.5467 255.977 55.228C254.661 52.8467 252.781 50.998 250.337 49.682C247.893 48.366 244.916 47.708 241.407 47.708C236.393 47.708 232.508 49.212 229.751 52.22C226.993 55.1653 225.615 58.988 225.615 63.688C225.615 66.7587 226.273 69.4847 227.589 71.866C228.967 74.2473 230.847 76.096 233.229 77.412C235.61 78.728 238.336 79.386 241.407 79.386ZM257.951 21.388H268.479V87H258.703C258.577 85.5587 258.421 83.7727 258.233 81.642C258.045 79.5113 257.951 77.6 257.951 75.908V21.388ZM311.488 71.584H321.546C321.045 74.78 319.791 77.6313 317.786 80.138C315.843 82.582 313.18 84.5247 309.796 85.966C306.412 87.3447 302.37 88.034 297.67 88.034C292.343 88.034 287.581 87.0627 283.382 85.12C279.183 83.1147 275.893 80.2947 273.512 76.66C271.131 73.0253 269.94 68.7013 269.94 63.688C269.94 58.7373 271.099 54.4133 273.418 50.716C275.737 47.0187 278.933 44.1673 283.006 42.162C287.142 40.1567 291.905 39.154 297.294 39.154C302.871 39.154 307.509 40.1567 311.206 42.162C314.966 44.1047 317.755 47.05 319.572 50.998C321.389 54.8833 322.141 59.8027 321.828 65.756H280.562C280.875 68.388 281.721 70.7693 283.1 72.9C284.541 74.968 286.484 76.5973 288.928 77.788C291.372 78.916 294.223 79.48 297.482 79.48C301.117 79.48 304.156 78.7593 306.6 77.318C309.107 75.8767 310.736 73.9653 311.488 71.584ZM297.012 47.614C292.751 47.614 289.241 48.6793 286.484 50.81C283.727 52.878 281.941 55.5413 281.126 58.8H311.3C311.049 55.2907 309.639 52.5647 307.07 50.622C304.501 48.6167 301.148 47.614 297.012 47.614ZM321.734 40.188H332.168V87H321.734V40.188ZM349.088 49.118C345.704 49.118 342.79 49.8387 340.346 51.28C337.965 52.7213 336.053 54.476 334.612 56.544C333.171 58.612 332.168 60.6173 331.604 62.56L331.51 57.296C331.573 56.6067 331.792 55.5727 332.168 54.194C332.544 52.7527 333.108 51.186 333.86 49.494C334.675 47.802 335.74 46.1727 337.056 44.606C338.435 42.9767 340.095 41.6607 342.038 40.658C344.043 39.6553 346.393 39.154 349.088 39.154V49.118Z" fill="black"/>
<path d="M305.5 22H319.5L304 37H294L305.5 22Z" fill="black"/>
<circle cx="337" cy="10" r="5" fill="#5B4DFF"/>
<circle cx="350" cy="10" r="5" fill="#D4FF3F"/>
</svg>
